<?xml version="1.0" encoding="UTF-8" standalone="no"?>
<svg
   width="579.9566"
   height="637.39331"
   viewBox="0 0 371.17223 407.93172"
   version="1.1"
   id="svg1"
   sodipodi:docname="doc.svg"
   inkscape:export-filename="doc.svg"
   inkscape:export-xdpi="96"
   inkscape:export-ydpi="96"
   xmlns:inkscape="http://www.inkscape.org/namespaces/inkscape"
   xmlns:sodipodi="http://sodipodi.sourceforge.net/DTD/sodipodi-0.dtd"
   xmlns="http://www.w3.org/2000/svg"
   xmlns:svg="http://www.w3.org/2000/svg">
  <defs
     id="defs1" />
  <sodipodi:namedview
     id="namedview1"
     pagecolor="#ffffff"
     bordercolor="#000000"
     borderopacity="0.25"
     inkscape:showpageshadow="2"
     inkscape:pageopacity="0.0"
     inkscape:pagecheckerboard="0"
     inkscape:deskcolor="#d1d1d1" />
  <title
     id="title1">doc-document</title>
  <g
     id="Page-1"
     stroke="none"
     stroke-width="1"
     fill="none"
     fill-rule="evenodd"
     style="fill:#5390f5;fill-opacity:1"
     transform="translate(-71.778137,-42.666664)">
    <g
       id="icon"
       fill="#000000"
       transform="translate(71.778133,42.666667)"
       style="fill:#5390f5;fill-opacity:1">
      <path
         d="m 28.864,383.08267 h 5.504 c 13.141333,0 22.869333,-2.15467 29.205333,-6.42134 C 69.12,372.97067 73.130667,367.296 75.584,359.57333 77.397333,353.856 78.314667,347.776 78.314667,341.312 c 0,-6.93333 -1.045334,-13.35467 -3.157334,-19.264 C 73.024,316.13867 70.144,311.53067 66.474667,308.20267 62.976,305.088 58.986667,302.95467 54.528,301.84533 50.069333,300.736 43.349333,300.16 34.368,300.16 H 28.864 Z M 0,405.696 V 277.568 h 35.456 c 15.082667,0 27.114667,1.45067 36.16,4.352 11.818667,3.79733 20.842667,10.83733 27.114667,21.09867 6.272003,10.28266 9.429333,23.168 9.429333,38.656 0,15.91466 -3.15733,28.90666 -9.429333,38.976 C 90.901333,393.344 78.805333,401.088 62.4,403.79733 54.869333,405.056 45.226667,405.696 33.472,405.696 Z M 186.38933,297.91573 c -10.432,0 -18.47466,4.33067 -24.14933,13.01334 -5.12,7.85066 -7.68,17.89866 -7.68,30.18666 0,14.22934 3.02933,25.28 9.13067,33.10934 5.71733,7.424 13.33333,11.11466 22.784,11.11466 10.368,0 18.45333,-4.352 24.23466,-13.12 5.12,-7.70133 7.68,-17.87733 7.68,-30.54933 0,-13.93067 -3.05066,-24.78933 -9.13066,-32.64 -5.71734,-7.40267 -13.35467,-11.11467 -22.86934,-11.11467 m 0.0853,-22.61333 c 20.13866,0 35.56266,6.37867 46.29333,19.17867 10.304,12.224 15.44533,27.94666 15.44533,47.18933 0,21.03467 -6.08,37.76 -18.24,50.176 -10.496,10.73067 -25.00266,16.08533 -43.49866,16.08533 -20.11734,0 -35.56267,-6.37866 -46.29334,-19.15733 -10.304,-12.224 -15.46666,-28.20267 -15.46666,-47.91467 0,-20.608 6.10133,-37.14133 18.28266,-49.55733 10.53867,-10.66667 25.04534,-16 43.47734,-16 m 176.27093,100.17493 8.42667,23.06134 c -7.616,3.69066 -14.22934,6.16533 -19.904,7.46666 -5.67467,1.28 -12.672,1.92 -20.97067,1.92 -12.544,0 -22.912,-1.792 -31.104,-5.39733 -11.47733,-5.07733 -20.11733,-13.056 -25.94133,-23.95733 -5.248,-9.77067 -7.872,-21.71734 -7.872,-35.81867 0,-23.78667 7.25333,-41.83467 21.78133,-54.05867 10.53867,-8.91733 24.448,-13.376 41.68533,-13.376 7.36,0 14.03734,0.66134 20.07467,2.00534 6.016,1.36533 12.864,3.75466 20.50133,7.18933 l -9.664,21.71733 c -10.176,-5.54666 -19.94666,-8.32 -29.29066,-8.32 -11.264,0 -19.88267,3.86134 -25.856,11.56267 -6.272,8.08533 -9.408,18.752 -9.408,32.02133 0,13.73867 3.28533,24.49067 9.856,32.23467 6.57066,7.744 15.63733,11.60533 27.22133,11.60533 5.22667,0 10.06933,-0.68266 14.464,-2.112 4.39467,-1.408 9.728,-3.98933 16,-7.744 M 248.22187,0 H 13.5552 V 234.66667 H 56.221867 V 192 169.6 42.666667 H 230.5152 l 81.70667,81.706663 V 169.6 192 234.66667 h 42.66666 v -128 z"
         id="DOC"
         inkscape:label="DOC"
         style="fill:#5390f5;fill-opacity:1;stroke:none;stroke-opacity:1" />
    </g>
  </g>
</svg>
